solid OpenSCAD_Model
  facet normal 4.40585e-07 -0.587779 -0.809021
    outer loop
      vertex 34.925 -40.375 -4.775
      vertex 31.46 -38.9986 -5.775
      vertex 34.925 -38.9484 -5.81147
    endloop
  endfacet
  facet normal 0 -0.58778 -0.809021
    outer loop
      vertex 30.925 -40.375 -4.775
      vertex 31.46 -38.9986 -5.775
      vertex 34.925 -40.375 -4.775
    endloop
  endfacet
  facet normal -0 -0.58778 -0.809021
    outer loop
      vertex 31.46 -38.9986 -5.775
      vertex 30.925 -40.375 -4.775
      vertex 31.269 -38.9986 -5.775
    endloop
  endfacet
  facet normal -0 -0.58776 -0.809036
    outer loop
      vertex 34.925 -38.9484 -5.81147
      vertex 31.46 -38.9986 -5.775
      vertex 31.4235 -38.9484 -5.81147
    endloop
  endfacet
  facet normal 0 -0.58776 -0.809036
    outer loop
      vertex 31.269 -38.9986 -5.775
      vertex 30.925 -38.9484 -5.81147
      vertex 31.4235 -38.9484 -5.81147
    endloop
  endfacet
  facet normal -4.43787e-06 -0.587779 -0.809021
    outer loop
      vertex 30.925 -38.9484 -5.81147
      vertex 31.269 -38.9986 -5.775
      vertex 30.925 -40.375 -4.775
    endloop
  endfacet
  facet normal 0 -0.951058 0.309012
    outer loop
      vertex 31.8194 -39.4933 -7.48853
      vertex 34.925 -38.9484 -5.81147
      vertex 31.4235 -38.9484 -5.81147
    endloop
  endfacet
  facet normal 0 -0.951058 0.309012
    outer loop
      vertex 34.925 -38.9484 -5.81147
      vertex 31.8194 -39.4933 -7.48853
      vertex 34.925 -39.4933 -7.48853
    endloop
  endfacet
  facet normal 0 -0.951047 0.309048
    outer loop
      vertex 31.4235 -38.9484 -5.81147
      vertex 30.925 -38.9484 -5.81147
      vertex 30.925 -39.1104 -6.31
    endloop
  endfacet
  facet normal 0 0 1
    outer loop
      vertex 34.925 -39.4933 -7.48853
      vertex 32.46 -40.375 -7.48853
      vertex 34.925 -41.2567 -7.48853
    endloop
  endfacet
  facet normal 0 -0 1
    outer loop
      vertex 32.46 -40.375 -7.48853
      vertex 34.925 -39.4933 -7.48853
      vertex 31.8194 -39.4933 -7.48853
    endloop
  endfacet
  facet normal 0 0 1
    outer loop
      vertex 34.925 -41.2567 -7.48853
      vertex 32.46 -40.375 -7.48853
      vertex 31.8194 -41.2567 -7.48853
    endloop
  endfacet
  facet normal 1 0 0
    outer loop
      vertex 30.925 -40.375 -4.775
      vertex 30.925 -39.1104 -5.775
      vertex 30.925 -38.9484 -5.81147
    endloop
  endfacet
  facet normal 1 0 0
    outer loop
      vertex 30.925 -40.375 -4.775
      vertex 30.925 -41.6396 -5.775
      vertex 30.925 -39.1104 -5.775
    endloop
  endfacet
  facet normal 1 0 0
    outer loop
      vertex 30.925 -41.6396 -5.775
      vertex 30.925 -41.8016 -5.81147
      vertex 30.925 -41.6396 -6.31
    endloop
  endfacet
  facet normal 1 0 0
    outer loop
      vertex 30.925 -41.8016 -5.81147
      vertex 30.925 -41.6396 -5.775
      vertex 30.925 -40.375 -4.775
    endloop
  endfacet
  facet normal 1 0 0
    outer loop
      vertex 30.925 -38.9484 -5.81147
      vertex 30.925 -39.1104 -5.775
      vertex 30.925 -39.1104 -6.31
    endloop
  endfacet
  facet normal 1 0 0
    outer loop
      vertex 34.925 50.225 9.275
      vertex 34.925 37.6516 -5.81147
      vertex 34.925 50.225 -9.275
    endloop
  endfacet
  facet normal 1 0 0
    outer loop
      vertex 34.925 50.225 9.275
      vertex 34.925 36.225 -4.775
      vertex 34.925 37.6516 -5.81147
    endloop
  endfacet
  facet normal 1 -0 0
    outer loop
      vertex 34.925 -50.225 9.275
      vertex 34.925 36.225 -4.775
      vertex 34.925 50.225 9.275
    endloop
  endfacet
  facet normal 1 0 0
    outer loop
      vertex 34.925 36.225 -4.775
      vertex 34.925 -50.225 9.275
      vertex 34.925 34.7984 -5.81147
    endloop
  endfacet
  facet normal 1 0 0
    outer loop
      vertex 34.925 34.7984 -5.81147
      vertex 34.925 -50.225 9.275
      vertex 34.925 -38.9484 -5.81147
    endloop
  endfacet
  facet normal 1 0 0
    outer loop
      vertex 34.925 -40.375 -4.775
      vertex 34.925 -50.225 9.275
      vertex 34.925 -41.8016 -5.81147
    endloop
  endfacet
  facet normal 1 0 0
    outer loop
      vertex 34.925 -38.9484 -5.81147
      vertex 34.925 -50.225 9.275
      vertex 34.925 -40.375 -4.775
    endloop
  endfacet
  facet normal 1 -0 0
    outer loop
      vertex 34.925 37.1067 -7.48853
      vertex 34.925 50.225 -9.275
      vertex 34.925 37.6516 -5.81147
    endloop
  endfacet
  facet normal 1 -0 0
    outer loop
      vertex 34.925 35.3433 -7.48853
      vertex 34.925 50.225 -9.275
      vertex 34.925 37.1067 -7.48853
    endloop
  endfacet
  facet normal 1 -0 0
    outer loop
      vertex 34.925 -38.9484 -5.81147
      vertex 34.925 35.3433 -7.48853
      vertex 34.925 34.7984 -5.81147
    endloop
  endfacet
  facet normal 1 0 0
    outer loop
      vertex 34.925 -39.4933 -7.48853
      vertex 34.925 35.3433 -7.48853
      vertex 34.925 -38.9484 -5.81147
    endloop
  endfacet
  facet normal 1 0 0
    outer loop
      vertex 34.925 -50.225 -9.275
      vertex 34.925 35.3433 -7.48853
      vertex 34.925 -39.4933 -7.48853
    endloop
  endfacet
  facet normal 1 0 0
    outer loop
      vertex 34.925 -50.225 -9.275
      vertex 34.925 -39.4933 -7.48853
      vertex 34.925 -41.2567 -7.48853
    endloop
  endfacet
  facet normal 1 0 0
    outer loop
      vertex 34.925 -50.225 -9.275
      vertex 34.925 -41.8016 -5.81147
      vertex 34.925 -50.225 9.275
    endloop
  endfacet
  facet normal 1 0 0
    outer loop
      vertex 34.925 35.3433 -7.48853
      vertex 34.925 -50.225 -9.275
      vertex 34.925 50.225 -9.275
    endloop
  endfacet
  facet normal 1 0 0
    outer loop
      vertex 34.925 -41.8016 -5.81147
      vertex 34.925 -50.225 -9.275
      vertex 34.925 -41.2567 -7.48853
    endloop
  endfacet
  facet normal -0 0.951058 0.309012
    outer loop
      vertex 31.8194 -41.2567 -7.48853
      vertex 34.925 -41.8016 -5.81147
      vertex 34.925 -41.2567 -7.48853
    endloop
  endfacet
  facet normal 0 0.951058 0.309012
    outer loop
      vertex 34.925 -41.8016 -5.81147
      vertex 31.8194 -41.2567 -7.48853
      vertex 31.4235 -41.8016 -5.81147
    endloop
  endfacet
  facet normal 0 0.951047 0.309048
    outer loop
      vertex 31.4235 -41.8016 -5.81147
      vertex 30.925 -41.6396 -6.31
      vertex 30.925 -41.8016 -5.81147
    endloop
  endfacet
  facet normal 4.40585e-07 0.587779 -0.809021
    outer loop
      vertex 34.925 -41.8016 -5.81147
      vertex 31.46 -41.7514 -5.775
      vertex 34.925 -40.375 -4.775
    endloop
  endfacet
  facet normal 0 0.58776 -0.809036
    outer loop
      vertex 31.46 -41.7514 -5.775
      vertex 34.925 -41.8016 -5.81147
      vertex 31.4235 -41.8016 -5.81147
    endloop
  endfacet
  facet normal 0 0.58778 -0.809021
    outer loop
      vertex 30.925 -40.375 -4.775
      vertex 31.46 -41.7514 -5.775
      vertex 31.269 -41.7514 -5.775
    endloop
  endfacet
  facet normal -4.43787e-06 0.587779 -0.809021
    outer loop
      vertex 30.925 -40.375 -4.775
      vertex 31.269 -41.7514 -5.775
      vertex 30.925 -41.8016 -5.81147
    endloop
  endfacet
  facet normal 0 0.58778 -0.809021
    outer loop
      vertex 31.46 -41.7514 -5.775
      vertex 30.925 -40.375 -4.775
      vertex 34.925 -40.375 -4.775
    endloop
  endfacet
  facet normal 0 0.58776 -0.809036
    outer loop
      vertex 31.4235 -41.8016 -5.81147
      vertex 30.925 -41.8016 -5.81147
      vertex 31.269 -41.7514 -5.775
    endloop
  endfacet
  facet normal 4.40585e-07 -0.587779 -0.809021
    outer loop
      vertex 34.925 36.225 -4.775
      vertex 31.46 37.6014 -5.775
      vertex 34.925 37.6516 -5.81147
    endloop
  endfacet
  facet normal 0 -0.58778 -0.809021
    outer loop
      vertex 30.925 36.225 -4.775
      vertex 31.46 37.6014 -5.775
      vertex 34.925 36.225 -4.775
    endloop
  endfacet
  facet normal -0 -0.58778 -0.809021
    outer loop
      vertex 31.46 37.6014 -5.775
      vertex 30.925 36.225 -4.775
      vertex 31.269 37.6014 -5.775
    endloop
  endfacet
  facet normal -0 -0.58776 -0.809036
    outer loop
      vertex 34.925 37.6516 -5.81147
      vertex 31.46 37.6014 -5.775
      vertex 31.4235 37.6516 -5.81147
    endloop
  endfacet
  facet normal 0 -0.58776 -0.809036
    outer loop
      vertex 31.269 37.6014 -5.775
      vertex 30.925 37.6516 -5.81147
      vertex 31.4235 37.6516 -5.81147
    endloop
  endfacet
  facet normal -4.43787e-06 -0.587779 -0.809021
    outer loop
      vertex 30.925 37.6516 -5.81147
      vertex 31.269 37.6014 -5.775
      vertex 30.925 36.225 -4.775
    endloop
  endfacet
  facet normal 0 -0.951058 0.309012
    outer loop
      vertex 31.8194 37.1067 -7.48853
      vertex 34.925 37.6516 -5.81147
      vertex 31.4235 37.6516 -5.81147
    endloop
  endfacet
  facet normal 0 -0.951058 0.309012
    outer loop
      vertex 34.925 37.6516 -5.81147
      vertex 31.8194 37.1067 -7.48853
      vertex 34.925 37.1067 -7.48853
    endloop
  endfacet
  facet normal 0 -0.951047 0.309048
    outer loop
      vertex 31.4235 37.6516 -5.81147
      vertex 30.925 37.6516 -5.81147
      vertex 30.925 37.4896 -6.31
    endloop
  endfacet
  facet normal 0 0 1
    outer loop
      vertex 34.925 37.1067 -7.48853
      vertex 32.46 36.225 -7.48853
      vertex 34.925 35.3433 -7.48853
    endloop
  endfacet
  facet normal 0 -0 1
    outer loop
      vertex 32.46 36.225 -7.48853
      vertex 34.925 37.1067 -7.48853
      vertex 31.8194 37.1067 -7.48853
    endloop
  endfacet
  facet normal 0 0 1
    outer loop
      vertex 34.925 35.3433 -7.48853
      vertex 32.46 36.225 -7.48853
      vertex 31.8194 35.3433 -7.48853
    endloop
  endfacet
  facet normal 1 0 0
    outer loop
      vertex 30.925 36.225 -4.775
      vertex 30.925 37.4896 -5.775
      vertex 30.925 37.6516 -5.81147
    endloop
  endfacet
  facet normal 1 0 0
    outer loop
      vertex 30.925 36.225 -4.775
      vertex 30.925 34.9604 -5.775
      vertex 30.925 37.4896 -5.775
    endloop
  endfacet
  facet normal 1 0 0
    outer loop
      vertex 30.925 34.9604 -5.775
      vertex 30.925 34.7984 -5.81147
      vertex 30.925 34.9604 -6.31
    endloop
  endfacet
  facet normal 1 0 0
    outer loop
      vertex 30.925 34.7984 -5.81147
      vertex 30.925 34.9604 -5.775
      vertex 30.925 36.225 -4.775
    endloop
  endfacet
  facet normal 1 0 0
    outer loop
      vertex 30.925 37.6516 -5.81147
      vertex 30.925 37.4896 -5.775
      vertex 30.925 37.4896 -6.31
    endloop
  endfacet
  facet normal -0 0.951058 0.309012
    outer loop
      vertex 31.8194 35.3433 -7.48853
      vertex 34.925 34.7984 -5.81147
      vertex 34.925 35.3433 -7.48853
    endloop
  endfacet
  facet normal 0 0.951058 0.309012
    outer loop
      vertex 34.925 34.7984 -5.81147
      vertex 31.8194 35.3433 -7.48853
      vertex 31.4235 34.7984 -5.81147
    endloop
  endfacet
  facet normal 0 0.951047 0.309048
    outer loop
      vertex 31.4235 34.7984 -5.81147
      vertex 30.925 34.9604 -6.31
      vertex 30.925 34.7984 -5.81147
    endloop
  endfacet
  facet normal 4.40585e-07 0.587779 -0.809021
    outer loop
      vertex 34.925 34.7984 -5.81147
      vertex 31.46 34.8486 -5.775
      vertex 34.925 36.225 -4.775
    endloop
  endfacet
  facet normal 0 0.58776 -0.809036
    outer loop
      vertex 31.46 34.8486 -5.775
      vertex 34.925 34.7984 -5.81147
      vertex 31.4235 34.7984 -5.81147
    endloop
  endfacet
  facet normal 0 0.58778 -0.809021
    outer loop
      vertex 30.925 36.225 -4.775
      vertex 31.46 34.8486 -5.775
      vertex 31.269 34.8486 -5.775
    endloop
  endfacet
  facet normal -4.43787e-06 0.587779 -0.809021
    outer loop
      vertex 30.925 36.225 -4.775
      vertex 31.269 34.8486 -5.775
      vertex 30.925 34.7984 -5.81147
    endloop
  endfacet
  facet normal 0 0.58778 -0.809021
    outer loop
      vertex 31.46 34.8486 -5.775
      vertex 30.925 36.225 -4.775
      vertex 34.925 36.225 -4.775
    endloop
  endfacet
  facet normal 0 0.58776 -0.809036
    outer loop
      vertex 31.4235 34.7984 -5.81147
      vertex 30.925 34.7984 -5.81147
      vertex 31.269 34.8486 -5.775
    endloop
  endfacet
  facet normal -0.809012 -0.587792 0
    outer loop
      vertex 31.4235 -38.9484 -9.275
      vertex 31.8194 -39.4933 -7.48853
      vertex 31.4235 -38.9484 -5.81147
    endloop
  endfacet
  facet normal -0.809013 -0.587791 6.63443e-07
    outer loop
      vertex 32.46 -40.375 -9.275
      vertex 31.8194 -39.4933 -7.48853
      vertex 31.4235 -38.9484 -9.275
    endloop
  endfacet
  facet normal -0.809014 -0.58779 0
    outer loop
      vertex 31.8194 -39.4933 -7.48853
      vertex 32.46 -40.375 -9.275
      vertex 32.46 -40.375 -7.48853
    endloop
  endfacet
  facet normal -0.808806 -0.588076 0
    outer loop
      vertex 31.46 -38.9986 -5.775
      vertex 31.4235 -38.9484 -5.775
      vertex 31.4235 -38.9484 -5.81147
    endloop
  endfacet
  facet normal 1 -0 0
    outer loop
      vertex 29.7465 -41.2567 -5.775
      vertex 29.7465 -39.4933 -9.275
      vertex 29.7465 -39.4933 -5.775
    endloop
  endfacet
  facet normal 1 0 0
    outer loop
      vertex 29.7465 -39.4933 -9.275
      vertex 29.7465 -41.2567 -5.775
      vertex 29.7465 -41.2567 -9.275
    endloop
  endfacet
  facet normal 0.309004 -0.951061 0
    outer loop
      vertex 29.7465 -39.4933 -5.775
      vertex 30.925 -39.1104 -6.31
      vertex 30.925 -39.1104 -5.775
    endloop
  endfacet
  facet normal 0.309004 -0.951061 0
    outer loop
      vertex 30.925 -39.1104 -6.31
      vertex 29.7465 -39.4933 -5.775
      vertex 29.7465 -39.4933 -9.275
    endloop
  endfacet
  facet normal 0.309022 -0.951055 -7.90903e-06
    outer loop
      vertex 31.4235 -38.9484 -9.275
      vertex 30.925 -39.1104 -6.31
      vertex 29.7465 -39.4933 -9.275
    endloop
  endfacet
  facet normal 0.309065 -0.951041 0
    outer loop
      vertex 30.925 -39.1104 -6.31
      vertex 31.4235 -38.9484 -9.275
      vertex 31.4235 -38.9484 -5.81147
    endloop
  endfacet
  facet normal 0.309016 -0.951057 0
    outer loop
      vertex 31.4235 -38.9484 -5.81147
      vertex 31.4235 -38.9484 -5.775
      vertex 31.269 -38.9986 -5.775
    endloop
  endfacet
  facet normal 0.309065 0.951041 0
    outer loop
      vertex 31.4235 -41.8016 -5.81147
      vertex 31.4235 -41.8016 -9.275
      vertex 30.925 -41.6396 -6.31
    endloop
  endfacet
  facet normal 0.309004 0.951061 -0
    outer loop
      vertex 30.925 -41.6396 -6.31
      vertex 29.7465 -41.2567 -5.775
      vertex 30.925 -41.6396 -5.775
    endloop
  endfacet
  facet normal 0.309022 0.951055 -7.90903e-06
    outer loop
      vertex 29.7465 -41.2567 -9.275
      vertex 30.925 -41.6396 -6.31
      vertex 31.4235 -41.8016 -9.275
    endloop
  endfacet
  facet normal 0.309004 0.951061 0
    outer loop
      vertex 30.925 -41.6396 -6.31
      vertex 29.7465 -41.2567 -9.275
      vertex 29.7465 -41.2567 -5.775
    endloop
  endfacet
  facet normal 0.309016 0.951057 0
    outer loop
      vertex 31.4235 -41.8016 -5.775
      vertex 31.4235 -41.8016 -5.81147
      vertex 31.269 -41.7514 -5.775
    endloop
  endfacet
  facet normal 0 0 -1
    outer loop
      vertex -31.4235 -38.9484 -9.275
      vertex -29.7465 35.3433 -9.275
      vertex -29.7465 -39.4933 -9.275
    endloop
  endfacet
  facet normal 0 0 -1
    outer loop
      vertex -31.4235 -38.9484 -9.275
      vertex -31.4235 34.7984 -9.275
      vertex -29.7465 35.3433 -9.275
    endloop
  endfacet
  facet normal 0 0 -1
    outer loop
      vertex -32.46 -40.375 -9.275
      vertex -31.4235 34.7984 -9.275
      vertex -31.4235 -38.9484 -9.275
    endloop
  endfacet
  facet normal -0 0 -1
    outer loop
      vertex -31.4235 34.7984 -9.275
      vertex -32.46 -40.375 -9.275
      vertex -32.46 36.225 -9.275
    endloop
  endfacet
  facet normal 0 0 -1
    outer loop
      vertex 31.4235 -38.9484 -9.275
      vertex 32.46 36.225 -9.275
      vertex 32.46 -40.375 -9.275
    endloop
  endfacet
  facet normal 0 0 -1
    outer loop
      vertex 31.4235 -38.9484 -9.275
      vertex 31.4235 34.7984 -9.275
      vertex 32.46 36.225 -9.275
    endloop
  endfacet
  facet normal 0 0 -1
    outer loop
      vertex 29.7465 -39.4933 -9.275
      vertex 31.4235 34.7984 -9.275
      vertex 31.4235 -38.9484 -9.275
    endloop
  endfacet
  facet normal -0 0 -1
    outer loop
      vertex 31.4235 34.7984 -9.275
      vertex 29.7465 -39.4933 -9.275
      vertex 29.7465 35.3433 -9.275
    endloop
  endfacet
  facet normal 0 0 -1
    outer loop
      vertex 32.46 36.225 -9.275
      vertex 34.925 -50.225 -9.275
      vertex 32.46 -40.375 -9.275
    endloop
  endfacet
  facet normal 0 0 -1
    outer loop
      vertex 34.925 -50.225 -9.275
      vertex 31.4235 -41.8016 -9.275
      vertex 32.46 -40.375 -9.275
    endloop
  endfacet
  facet normal 0 0 -1
    outer loop
      vertex 34.925 -50.225 -9.275
      vertex 29.7465 -41.2567 -9.275
      vertex 31.4235 -41.8016 -9.275
    endloop
  endfacet
  facet normal 0 0 -1
    outer loop
      vertex -29.7465 -39.4933 -9.275
      vertex 29.7465 -39.4933 -9.275
      vertex 29.7465 -41.2567 -9.275
    endloop
  endfacet
  facet normal 0 0 -1
    outer loop
      vertex 29.7465 -39.4933 -9.275
      vertex -29.7465 -39.4933 -9.275
      vertex 29.7465 35.3433 -9.275
    endloop
  endfacet
  facet normal 0 0 -1
    outer loop
      vertex -29.7465 -39.4933 -9.275
      vertex 29.7465 -41.2567 -9.275
      vertex -29.7465 -41.2567 -9.275
    endloop
  endfacet
  facet normal 0 0 -1
    outer loop
      vertex 34.925 -50.225 -9.275
      vertex -29.7465 -41.2567 -9.275
      vertex 29.7465 -41.2567 -9.275
    endloop
  endfacet
  facet normal 0 0 -1
    outer loop
      vertex -34.925 -50.225 -9.275
      vertex -29.7465 -41.2567 -9.275
      vertex 34.925 -50.225 -9.275
    endloop
  endfacet
  facet normal -0 0 -1
    outer loop
      vertex -32.46 -40.375 -9.275
      vertex -34.925 -50.225 -9.275
      vertex -32.46 36.225 -9.275
    endloop
  endfacet
  facet normal -0 0 -1
    outer loop
      vertex -31.4235 -41.8016 -9.275
      vertex -34.925 -50.225 -9.275
      vertex -32.46 -40.375 -9.275
    endloop
  endfacet
  facet normal 0 0 -1
    outer loop
      vertex -29.7465 -41.2567 -9.275
      vertex -34.925 -50.225 -9.275
      vertex -31.4235 -41.8016 -9.275
    endloop
  endfacet
  facet normal 0 0 -1
    outer loop
      vertex 34.925 -50.225 -9.275
      vertex 32.46 36.225 -9.275
      vertex 34.925 50.225 -9.275
    endloop
  endfacet
  facet normal 0 0 -1
    outer loop
      vertex 31.4235 37.6516 -9.275
      vertex 34.925 50.225 -9.275
      vertex 32.46 36.225 -9.275
    endloop
  endfacet
  facet normal 0 0 -1
    outer loop
      vertex 29.7465 37.1067 -9.275
      vertex 34.925 50.225 -9.275
      vertex 31.4235 37.6516 -9.275
    endloop
  endfacet
  facet normal 0 0 -1
    outer loop
      vertex -29.7465 35.3433 -9.275
      vertex 29.7465 35.3433 -9.275
      vertex -29.7465 -39.4933 -9.275
    endloop
  endfacet
  facet normal 0 0 -1
    outer loop
      vertex 29.7465 35.3433 -9.275
      vertex -29.7465 35.3433 -9.275
      vertex 29.7465 37.1067 -9.275
    endloop
  endfacet
  facet normal 0 0 -1
    outer loop
      vertex -29.7465 37.1067 -9.275
      vertex 29.7465 37.1067 -9.275
      vertex -29.7465 35.3433 -9.275
    endloop
  endfacet
  facet normal 0 0 -1
    outer loop
      vertex 29.7465 37.1067 -9.275
      vertex -29.7465 37.1067 -9.275
      vertex 34.925 50.225 -9.275
    endloop
  endfacet
  facet normal 0 0 -1
    outer loop
      vertex -34.925 50.225 -9.275
      vertex -29.7465 37.1067 -9.275
      vertex -31.4235 37.6516 -9.275
    endloop
  endfacet
  facet normal 0 0 -1
    outer loop
      vertex -29.7465 37.1067 -9.275
      vertex -34.925 50.225 -9.275
      vertex 34.925 50.225 -9.275
    endloop
  endfacet
  facet normal 0 0 -1
    outer loop
      vertex -32.46 36.225 -9.275
      vertex -34.925 50.225 -9.275
      vertex -31.4235 37.6516 -9.275
    endloop
  endfacet
  facet normal 0 0 -1
    outer loop
      vertex -34.925 50.225 -9.275
      vertex -32.46 36.225 -9.275
      vertex -34.925 -50.225 -9.275
    endloop
  endfacet
  facet normal 0 0 -1
    outer loop
      vertex 29.7465 -41.2567 -5.775
      vertex 30.925 -39.1104 -5.775
      vertex 30.925 -41.6396 -5.775
    endloop
  endfacet
  facet normal 0 0 -1
    outer loop
      vertex 30.925 -39.1104 -5.775
      vertex 29.7465 -41.2567 -5.775
      vertex 29.7465 -39.4933 -5.775
    endloop
  endfacet
  facet normal 0 -0 -1
    outer loop
      vertex 31.4235 -38.9484 -5.775
      vertex 31.46 -38.9986 -5.775
      vertex 31.269 -38.9986 -5.775
    endloop
  endfacet
  facet normal -0 0 -1
    outer loop
      vertex 31.46 -41.7514 -5.775
      vertex 31.4235 -41.8016 -5.775
      vertex 31.269 -41.7514 -5.775
    endloop
  endfacet
  facet normal -0.809014 0.58779 0
    outer loop
      vertex 32.46 -40.375 -9.275
      vertex 31.8194 -41.2567 -7.48853
      vertex 32.46 -40.375 -7.48853
    endloop
  endfacet
  facet normal -0.809013 0.587791 6.63443e-07
    outer loop
      vertex 31.4235 -41.8016 -9.275
      vertex 31.8194 -41.2567 -7.48853
      vertex 32.46 -40.375 -9.275
    endloop
  endfacet
  facet normal -0.809012 0.587792 0
    outer loop
      vertex 31.8194 -41.2567 -7.48853
      vertex 31.4235 -41.8016 -9.275
      vertex 31.4235 -41.8016 -5.81147
    endloop
  endfacet
  facet normal -0.808806 0.588076 0
    outer loop
      vertex 31.4235 -41.8016 -5.775
      vertex 31.46 -41.7514 -5.775
      vertex 31.4235 -41.8016 -5.81147
    endloop
  endfacet
  facet normal -0.809012 -0.587792 0
    outer loop
      vertex 31.4235 37.6516 -9.275
      vertex 31.8194 37.1067 -7.48853
      vertex 31.4235 37.6516 -5.81147
    endloop
  endfacet
  facet normal -0.809013 -0.587791 6.63443e-07
    outer loop
      vertex 32.46 36.225 -9.275
      vertex 31.8194 37.1067 -7.48853
      vertex 31.4235 37.6516 -9.275
    endloop
  endfacet
  facet normal -0.809014 -0.58779 0
    outer loop
      vertex 31.8194 37.1067 -7.48853
      vertex 32.46 36.225 -9.275
      vertex 32.46 36.225 -7.48853
    endloop
  endfacet
  facet normal -0.808806 -0.588076 0
    outer loop
      vertex 31.46 37.6014 -5.775
      vertex 31.4235 37.6516 -5.775
      vertex 31.4235 37.6516 -5.81147
    endloop
  endfacet
  facet normal 1 -0 0
    outer loop
      vertex 29.7465 35.3433 -5.775
      vertex 29.7465 37.1067 -9.275
      vertex 29.7465 37.1067 -5.775
    endloop
  endfacet
  facet normal 1 0 0
    outer loop
      vertex 29.7465 37.1067 -9.275
      vertex 29.7465 35.3433 -5.775
      vertex 29.7465 35.3433 -9.275
    endloop
  endfacet
  facet normal 0.309004 -0.951061 0
    outer loop
      vertex 29.7465 37.1067 -5.775
      vertex 30.925 37.4896 -6.31
      vertex 30.925 37.4896 -5.775
    endloop
  endfacet
  facet normal 0.309004 -0.951061 0
    outer loop
      vertex 30.925 37.4896 -6.31
      vertex 29.7465 37.1067 -5.775
      vertex 29.7465 37.1067 -9.275
    endloop
  endfacet
  facet normal 0.309022 -0.951055 -7.90903e-06
    outer loop
      vertex 31.4235 37.6516 -9.275
      vertex 30.925 37.4896 -6.31
      vertex 29.7465 37.1067 -9.275
    endloop
  endfacet
  facet normal 0.309065 -0.951041 0
    outer loop
      vertex 30.925 37.4896 -6.31
      vertex 31.4235 37.6516 -9.275
      vertex 31.4235 37.6516 -5.81147
    endloop
  endfacet
  facet normal 0.309016 -0.951057 0
    outer loop
      vertex 31.4235 37.6516 -5.81147
      vertex 31.4235 37.6516 -5.775
      vertex 31.269 37.6014 -5.775
    endloop
  endfacet
  facet normal 0 0 -1
    outer loop
      vertex 29.7465 35.3433 -5.775
      vertex 30.925 37.4896 -5.775
      vertex 30.925 34.9604 -5.775
    endloop
  endfacet
  facet normal 0 0 -1
    outer loop
      vertex 30.925 37.4896 -5.775
      vertex 29.7465 35.3433 -5.775
      vertex 29.7465 37.1067 -5.775
    endloop
  endfacet
  facet normal 0 -0 -1
    outer loop
      vertex 31.4235 37.6516 -5.775
      vertex 31.46 37.6014 -5.775
      vertex 31.269 37.6014 -5.775
    endloop
  endfacet
  facet normal -0 0 -1
    outer loop
      vertex 31.46 34.8486 -5.775
      vertex 31.4235 34.7984 -5.775
      vertex 31.269 34.8486 -5.775
    endloop
  endfacet
  facet normal 0.309065 0.951041 0
    outer loop
      vertex 31.4235 34.7984 -5.81147
      vertex 31.4235 34.7984 -9.275
      vertex 30.925 34.9604 -6.31
    endloop
  endfacet
  facet normal 0.309004 0.951061 -0
    outer loop
      vertex 30.925 34.9604 -6.31
      vertex 29.7465 35.3433 -5.775
      vertex 30.925 34.9604 -5.775
    endloop
  endfacet
  facet normal 0.309022 0.951055 -7.90903e-06
    outer loop
      vertex 29.7465 35.3433 -9.275
      vertex 30.925 34.9604 -6.31
      vertex 31.4235 34.7984 -9.275
    endloop
  endfacet
  facet normal 0.309004 0.951061 0
    outer loop
      vertex 30.925 34.9604 -6.31
      vertex 29.7465 35.3433 -9.275
      vertex 29.7465 35.3433 -5.775
    endloop
  endfacet
  facet normal 0.309016 0.951057 0
    outer loop
      vertex 31.4235 34.7984 -5.775
      vertex 31.4235 34.7984 -5.81147
      vertex 31.269 34.8486 -5.775
    endloop
  endfacet
  facet normal -0.808806 0.588076 0
    outer loop
      vertex 31.4235 34.7984 -5.775
      vertex 31.46 34.8486 -5.775
      vertex 31.4235 34.7984 -5.81147
    endloop
  endfacet
  facet normal -0.809014 0.58779 0
    outer loop
      vertex 32.46 36.225 -9.275
      vertex 31.8194 35.3433 -7.48853
      vertex 32.46 36.225 -7.48853
    endloop
  endfacet
  facet normal -0.809013 0.587791 6.63443e-07
    outer loop
      vertex 31.4235 34.7984 -9.275
      vertex 31.8194 35.3433 -7.48853
      vertex 32.46 36.225 -9.275
    endloop
  endfacet
  facet normal -0.809012 0.587792 0
    outer loop
      vertex 31.8194 35.3433 -7.48853
      vertex 31.4235 34.7984 -9.275
      vertex 31.4235 34.7984 -5.81147
    endloop
  endfacet
  facet normal 4.43787e-06 -0.587779 -0.809021
    outer loop
      vertex -30.925 -40.375 -4.775
      vertex -31.269 -38.9986 -5.775
      vertex -30.925 -38.9484 -5.81147
    endloop
  endfacet
  facet normal 0 -0.58778 -0.809021
    outer loop
      vertex -30.925 -40.375 -4.775
      vertex -31.46 -38.9986 -5.775
      vertex -31.269 -38.9986 -5.775
    endloop
  endfacet
  facet normal 0 -0.58778 -0.809021
    outer loop
      vertex -31.46 -38.9986 -5.775
      vertex -30.925 -40.375 -4.775
      vertex -34.925 -40.375 -4.775
    endloop
  endfacet
  facet normal -0 -0.58776 -0.809036
    outer loop
      vertex -30.925 -38.9484 -5.81147
      vertex -31.269 -38.9986 -5.775
      vertex -31.4235 -38.9484 -5.81147
    endloop
  endfacet
  facet normal -4.40585e-07 -0.587779 -0.809021
    outer loop
      vertex -34.925 -38.9484 -5.81147
      vertex -31.46 -38.9986 -5.775
      vertex -34.925 -40.375 -4.775
    endloop
  endfacet
  facet normal 0 -0.58776 -0.809036
    outer loop
      vertex -31.46 -38.9986 -5.775
      vertex -34.925 -38.9484 -5.81147
      vertex -31.4235 -38.9484 -5.81147
    endloop
  endfacet
  facet normal 0 -0.951058 0.309012
    outer loop
      vertex -31.8194 -39.4933 -7.48853
      vertex -34.925 -38.9484 -5.81147
      vertex -34.925 -39.4933 -7.48853
    endloop
  endfacet
  facet normal 0 -0.951058 0.309012
    outer loop
      vertex -34.925 -38.9484 -5.81147
      vertex -31.8194 -39.4933 -7.48853
      vertex -31.4235 -38.9484 -5.81147
    endloop
  endfacet
  facet normal 0 -0.951047 0.309048
    outer loop
      vertex -30.925 -38.9484 -5.81147
      vertex -31.4235 -38.9484 -5.81147
      vertex -30.925 -39.1104 -6.31
    endloop
  endfacet
  facet normal 0 0 1
    outer loop
      vertex -31.8194 -39.4933 -7.48853
      vertex -34.925 -39.4933 -7.48853
      vertex -32.46 -40.375 -7.48853
    endloop
  endfacet
  facet normal 0 0 1
    outer loop
      vertex -34.925 -41.2567 -7.48853
      vertex -32.46 -40.375 -7.48853
      vertex -34.925 -39.4933 -7.48853
    endloop
  endfacet
  facet normal 0 0 1
    outer loop
      vertex -32.46 -40.375 -7.48853
      vertex -34.925 -41.2567 -7.48853
      vertex -31.8194 -41.2567 -7.48853
    endloop
  endfacet
  facet normal -1 0 0
    outer loop
      vertex -30.925 -41.6396 -6.31
      vertex -30.925 -41.8016 -5.81147
      vertex -30.925 -41.6396 -5.775
    endloop
  endfacet
  facet normal -1 0 0
    outer loop
      vertex -30.925 -39.1104 -5.775
      vertex -30.925 -38.9484 -5.81147
      vertex -30.925 -39.1104 -6.31
    endloop
  endfacet
  facet normal -1 0 0
    outer loop
      vertex -30.925 -39.1104 -5.775
      vertex -30.925 -40.375 -4.775
      vertex -30.925 -38.9484 -5.81147
    endloop
  endfacet
  facet normal -1 0 0
    outer loop
      vertex -30.925 -41.6396 -5.775
      vertex -30.925 -40.375 -4.775
      vertex -30.925 -39.1104 -5.775
    endloop
  endfacet
  facet normal -1 0 0
    outer loop
      vertex -30.925 -40.375 -4.775
      vertex -30.925 -41.6396 -5.775
      vertex -30.925 -41.8016 -5.81147
    endloop
  endfacet
  facet normal -1 0 0
    outer loop
      vertex -34.925 50.225 -9.275
      vertex -34.925 37.6516 -5.81147
      vertex -34.925 50.225 9.275
    endloop
  endfacet
  facet normal -1 0 0
    outer loop
      vertex -34.925 50.225 -9.275
      vertex -34.925 37.1067 -7.48853
      vertex -34.925 37.6516 -5.81147
    endloop
  endfacet
  facet normal -1 0 0
    outer loop
      vertex -34.925 50.225 -9.275
      vertex -34.925 35.3433 -7.48853
      vertex -34.925 37.1067 -7.48853
    endloop
  endfacet
  facet normal -1 0 0
    outer loop
      vertex -34.925 35.3433 -7.48853
      vertex -34.925 -38.9484 -5.81147
      vertex -34.925 34.7984 -5.81147
    endloop
  endfacet
  facet normal -1 0 0
    outer loop
      vertex -34.925 -50.225 -9.275
      vertex -34.925 35.3433 -7.48853
      vertex -34.925 50.225 -9.275
    endloop
  endfacet
  facet normal -1 0 0
    outer loop
      vertex -34.925 35.3433 -7.48853
      vertex -34.925 -39.4933 -7.48853
      vertex -34.925 -38.9484 -5.81147
    endloop
  endfacet
  facet normal -1 -0 0
    outer loop
      vertex -34.925 35.3433 -7.48853
      vertex -34.925 -50.225 -9.275
      vertex -34.925 -39.4933 -7.48853
    endloop
  endfacet
  facet normal -1 -0 0
    outer loop
      vertex -34.925 -41.2567 -7.48853
      vertex -34.925 -50.225 -9.275
      vertex -34.925 -41.8016 -5.81147
    endloop
  endfacet
  facet normal -1 -0 0
    outer loop
      vertex -34.925 -39.4933 -7.48853
      vertex -34.925 -50.225 -9.275
      vertex -34.925 -41.2567 -7.48853
    endloop
  endfacet
  facet normal -1 0 0
    outer loop
      vertex -34.925 36.225 -4.775
      vertex -34.925 50.225 9.275
      vertex -34.925 37.6516 -5.81147
    endloop
  endfacet
  facet normal -1 0 0
    outer loop
      vertex -34.925 -50.225 9.275
      vertex -34.925 36.225 -4.775
      vertex -34.925 34.7984 -5.81147
    endloop
  endfacet
  facet normal -1 0 0
    outer loop
      vertex -34.925 -50.225 9.275
      vertex -34.925 34.7984 -5.81147
      vertex -34.925 -38.9484 -5.81147
    endloop
  endfacet
  facet normal -1 0 0
    outer loop
      vertex -34.925 -50.225 9.275
      vertex -34.925 -38.9484 -5.81147
      vertex -34.925 -40.375 -4.775
    endloop
  endfacet
  facet normal -1 0 0
    outer loop
      vertex -34.925 -50.225 9.275
      vertex -34.925 -41.8016 -5.81147
      vertex -34.925 -50.225 -9.275
    endloop
  endfacet
  facet normal -1 0 0
    outer loop
      vertex -34.925 36.225 -4.775
      vertex -34.925 -50.225 9.275
      vertex -34.925 50.225 9.275
    endloop
  endfacet
  facet normal -1 0 0
    outer loop
      vertex -34.925 -41.8016 -5.81147
      vertex -34.925 -50.225 9.275
      vertex -34.925 -40.375 -4.775
    endloop
  endfacet
  facet normal 0 0.951058 0.309012
    outer loop
      vertex -31.8194 -41.2567 -7.48853
      vertex -34.925 -41.8016 -5.81147
      vertex -31.4235 -41.8016 -5.81147
    endloop
  endfacet
  facet normal 0 0.951058 0.309012
    outer loop
      vertex -34.925 -41.8016 -5.81147
      vertex -31.8194 -41.2567 -7.48853
      vertex -34.925 -41.2567 -7.48853
    endloop
  endfacet
  facet normal 0 0.951047 0.309048
    outer loop
      vertex -30.925 -41.6396 -6.31
      vertex -31.4235 -41.8016 -5.81147
      vertex -30.925 -41.8016 -5.81147
    endloop
  endfacet
  facet normal 0 0.58776 -0.809036
    outer loop
      vertex -31.4235 -41.8016 -5.81147
      vertex -34.925 -41.8016 -5.81147
      vertex -31.46 -41.7514 -5.775
    endloop
  endfacet
  facet normal 4.43787e-06 0.587779 -0.809021
    outer loop
      vertex -30.925 -41.8016 -5.81147
      vertex -31.269 -41.7514 -5.775
      vertex -30.925 -40.375 -4.775
    endloop
  endfacet
  facet normal 0 0.58776 -0.809036
    outer loop
      vertex -31.269 -41.7514 -5.775
      vertex -30.925 -41.8016 -5.81147
      vertex -31.4235 -41.8016 -5.81147
    endloop
  endfacet
  facet normal 0 0.58778 -0.809021
    outer loop
      vertex -31.46 -41.7514 -5.775
      vertex -30.925 -40.375 -4.775
      vertex -31.269 -41.7514 -5.775
    endloop
  endfacet
  facet normal -4.40585e-07 0.587779 -0.809021
    outer loop
      vertex -34.925 -40.375 -4.775
      vertex -31.46 -41.7514 -5.775
      vertex -34.925 -41.8016 -5.81147
    endloop
  endfacet
  facet normal 0 0.58778 -0.809021
    outer loop
      vertex -31.46 -41.7514 -5.775
      vertex -34.925 -40.375 -4.775
      vertex -30.925 -40.375 -4.775
    endloop
  endfacet
  facet normal 4.43787e-06 -0.587779 -0.809021
    outer loop
      vertex -30.925 36.225 -4.775
      vertex -31.269 37.6014 -5.775
      vertex -30.925 37.6516 -5.81147
    endloop
  endfacet
  facet normal 0 -0.58778 -0.809021
    outer loop
      vertex -30.925 36.225 -4.775
      vertex -31.46 37.6014 -5.775
      vertex -31.269 37.6014 -5.775
    endloop
  endfacet
  facet normal 0 -0.58778 -0.809021
    outer loop
      vertex -31.46 37.6014 -5.775
      vertex -30.925 36.225 -4.775
      vertex -34.925 36.225 -4.775
    endloop
  endfacet
  facet normal -0 -0.58776 -0.809036
    outer loop
      vertex -30.925 37.6516 -5.81147
      vertex -31.269 37.6014 -5.775
      vertex -31.4235 37.6516 -5.81147
    endloop
  endfacet
  facet normal -4.40585e-07 -0.587779 -0.809021
    outer loop
      vertex -34.925 37.6516 -5.81147
      vertex -31.46 37.6014 -5.775
      vertex -34.925 36.225 -4.775
    endloop
  endfacet
  facet normal 0 -0.58776 -0.809036
    outer loop
      vertex -31.46 37.6014 -5.775
      vertex -34.925 37.6516 -5.81147
      vertex -31.4235 37.6516 -5.81147
    endloop
  endfacet
  facet normal 0 -0.951058 0.309012
    outer loop
      vertex -31.8194 37.1067 -7.48853
      vertex -34.925 37.6516 -5.81147
      vertex -34.925 37.1067 -7.48853
    endloop
  endfacet
  facet normal 0 -0.951058 0.309012
    outer loop
      vertex -34.925 37.6516 -5.81147
      vertex -31.8194 37.1067 -7.48853
      vertex -31.4235 37.6516 -5.81147
    endloop
  endfacet
  facet normal 0 -0.951047 0.309048
    outer loop
      vertex -30.925 37.6516 -5.81147
      vertex -31.4235 37.6516 -5.81147
      vertex -30.925 37.4896 -6.31
    endloop
  endfacet
  facet normal 0 0 1
    outer loop
      vertex -31.8194 37.1067 -7.48853
      vertex -34.925 37.1067 -7.48853
      vertex -32.46 36.225 -7.48853
    endloop
  endfacet
  facet normal 0 0 1
    outer loop
      vertex -34.925 35.3433 -7.48853
      vertex -32.46 36.225 -7.48853
      vertex -34.925 37.1067 -7.48853
    endloop
  endfacet
  facet normal 0 0 1
    outer loop
      vertex -32.46 36.225 -7.48853
      vertex -34.925 35.3433 -7.48853
      vertex -31.8194 35.3433 -7.48853
    endloop
  endfacet
  facet normal -1 0 0
    outer loop
      vertex -30.925 34.9604 -6.31
      vertex -30.925 34.7984 -5.81147
      vertex -30.925 34.9604 -5.775
    endloop
  endfacet
  facet normal -1 0 0
    outer loop
      vertex -30.925 37.4896 -5.775
      vertex -30.925 37.6516 -5.81147
      vertex -30.925 37.4896 -6.31
    endloop
  endfacet
  facet normal -1 0 0
    outer loop
      vertex -30.925 37.4896 -5.775
      vertex -30.925 36.225 -4.775
      vertex -30.925 37.6516 -5.81147
    endloop
  endfacet
  facet normal -1 0 0
    outer loop
      vertex -30.925 34.9604 -5.775
      vertex -30.925 36.225 -4.775
      vertex -30.925 37.4896 -5.775
    endloop
  endfacet
  facet normal -1 0 0
    outer loop
      vertex -30.925 36.225 -4.775
      vertex -30.925 34.9604 -5.775
      vertex -30.925 34.7984 -5.81147
    endloop
  endfacet
  facet normal 0 0.951058 0.309012
    outer loop
      vertex -31.8194 35.3433 -7.48853
      vertex -34.925 34.7984 -5.81147
      vertex -31.4235 34.7984 -5.81147
    endloop
  endfacet
  facet normal 0 0.951058 0.309012
    outer loop
      vertex -34.925 34.7984 -5.81147
      vertex -31.8194 35.3433 -7.48853
      vertex -34.925 35.3433 -7.48853
    endloop
  endfacet
  facet normal 0 0.951047 0.309048
    outer loop
      vertex -30.925 34.9604 -6.31
      vertex -31.4235 34.7984 -5.81147
      vertex -30.925 34.7984 -5.81147
    endloop
  endfacet
  facet normal 0 0.58776 -0.809036
    outer loop
      vertex -31.4235 34.7984 -5.81147
      vertex -34.925 34.7984 -5.81147
      vertex -31.46 34.8486 -5.775
    endloop
  endfacet
  facet normal 4.43787e-06 0.587779 -0.809021
    outer loop
      vertex -30.925 34.7984 -5.81147
      vertex -31.269 34.8486 -5.775
      vertex -30.925 36.225 -4.775
    endloop
  endfacet
  facet normal 0 0.58776 -0.809036
    outer loop
      vertex -31.269 34.8486 -5.775
      vertex -30.925 34.7984 -5.81147
      vertex -31.4235 34.7984 -5.81147
    endloop
  endfacet
  facet normal 0 0.58778 -0.809021
    outer loop
      vertex -31.46 34.8486 -5.775
      vertex -30.925 36.225 -4.775
      vertex -31.269 34.8486 -5.775
    endloop
  endfacet
  facet normal -4.40585e-07 0.587779 -0.809021
    outer loop
      vertex -34.925 36.225 -4.775
      vertex -31.46 34.8486 -5.775
      vertex -34.925 34.7984 -5.81147
    endloop
  endfacet
  facet normal 0 0.58778 -0.809021
    outer loop
      vertex -31.46 34.8486 -5.775
      vertex -34.925 36.225 -4.775
      vertex -30.925 36.225 -4.775
    endloop
  endfacet
  facet normal 0.809012 -0.587792 0
    outer loop
      vertex -31.8194 -39.4933 -7.48853
      vertex -31.4235 -38.9484 -9.275
      vertex -31.4235 -38.9484 -5.81147
    endloop
  endfacet
  facet normal 0.809014 -0.58779 0
    outer loop
      vertex -32.46 -40.375 -9.275
      vertex -31.8194 -39.4933 -7.48853
      vertex -32.46 -40.375 -7.48853
    endloop
  endfacet
  facet normal 0.809013 -0.587791 6.63443e-07
    outer loop
      vertex -31.8194 -39.4933 -7.48853
      vertex -32.46 -40.375 -9.275
      vertex -31.4235 -38.9484 -9.275
    endloop
  endfacet
  facet normal 0.808806 -0.588076 0
    outer loop
      vertex -31.4235 -38.9484 -5.775
      vertex -31.46 -38.9986 -5.775
      vertex -31.4235 -38.9484 -5.81147
    endloop
  endfacet
  facet normal -1 0 0
    outer loop
      vertex -29.7465 -41.2567 -9.275
      vertex -29.7465 -39.4933 -5.775
      vertex -29.7465 -39.4933 -9.275
    endloop
  endfacet
  facet normal -1 -0 0
    outer loop
      vertex -29.7465 -39.4933 -5.775
      vertex -29.7465 -41.2567 -9.275
      vertex -29.7465 -41.2567 -5.775
    endloop
  endfacet
  facet normal -0.309065 -0.951041 -0
    outer loop
      vertex -31.4235 -38.9484 -5.81147
      vertex -31.4235 -38.9484 -9.275
      vertex -30.925 -39.1104 -6.31
    endloop
  endfacet
  facet normal -0.309004 -0.951061 0
    outer loop
      vertex -30.925 -39.1104 -6.31
      vertex -29.7465 -39.4933 -5.775
      vertex -30.925 -39.1104 -5.775
    endloop
  endfacet
  facet normal -0.309022 -0.951055 -7.90903e-06
    outer loop
      vertex -29.7465 -39.4933 -9.275
      vertex -30.925 -39.1104 -6.31
      vertex -31.4235 -38.9484 -9.275
    endloop
  endfacet
  facet normal -0.309004 -0.951061 0
    outer loop
      vertex -30.925 -39.1104 -6.31
      vertex -29.7465 -39.4933 -9.275
      vertex -29.7465 -39.4933 -5.775
    endloop
  endfacet
  facet normal -0.309016 -0.951057 -0
    outer loop
      vertex -31.4235 -38.9484 -5.775
      vertex -31.4235 -38.9484 -5.81147
      vertex -31.269 -38.9986 -5.775
    endloop
  endfacet
  facet normal -0.309004 0.951061 0
    outer loop
      vertex -29.7465 -41.2567 -5.775
      vertex -30.925 -41.6396 -6.31
      vertex -30.925 -41.6396 -5.775
    endloop
  endfacet
  facet normal -0.309004 0.951061 0
    outer loop
      vertex -30.925 -41.6396 -6.31
      vertex -29.7465 -41.2567 -5.775
      vertex -29.7465 -41.2567 -9.275
    endloop
  endfacet
  facet normal -0.309022 0.951055 -7.90903e-06
    outer loop
      vertex -31.4235 -41.8016 -9.275
      vertex -30.925 -41.6396 -6.31
      vertex -29.7465 -41.2567 -9.275
    endloop
  endfacet
  facet normal -0.309065 0.951041 0
    outer loop
      vertex -30.925 -41.6396 -6.31
      vertex -31.4235 -41.8016 -9.275
      vertex -31.4235 -41.8016 -5.81147
    endloop
  endfacet
  facet normal -0.309016 0.951057 0
    outer loop
      vertex -31.269 -41.7514 -5.775
      vertex -31.4235 -41.8016 -5.81147
      vertex -31.4235 -41.8016 -5.775
    endloop
  endfacet
  facet normal 0 0 -1
    outer loop
      vertex -30.925 -41.6396 -5.775
      vertex -29.7465 -39.4933 -5.775
      vertex -29.7465 -41.2567 -5.775
    endloop
  endfacet
  facet normal -0 0 -1
    outer loop
      vertex -29.7465 -39.4933 -5.775
      vertex -30.925 -41.6396 -5.775
      vertex -30.925 -39.1104 -5.775
    endloop
  endfacet
  facet normal 0 0 -1
    outer loop
      vertex -31.269 -38.9986 -5.775
      vertex -31.46 -38.9986 -5.775
      vertex -31.4235 -38.9484 -5.775
    endloop
  endfacet
  facet normal 0 0 -1
    outer loop
      vertex -31.4235 -41.8016 -5.775
      vertex -31.46 -41.7514 -5.775
      vertex -31.269 -41.7514 -5.775
    endloop
  endfacet
  facet normal 0.809014 0.58779 0
    outer loop
      vertex -31.8194 -41.2567 -7.48853
      vertex -32.46 -40.375 -9.275
      vertex -32.46 -40.375 -7.48853
    endloop
  endfacet
  facet normal 0.809013 0.587791 6.63443e-07
    outer loop
      vertex -31.8194 -41.2567 -7.48853
      vertex -31.4235 -41.8016 -9.275
      vertex -32.46 -40.375 -9.275
    endloop
  endfacet
  facet normal 0.809012 0.587792 -0
    outer loop
      vertex -31.4235 -41.8016 -9.275
      vertex -31.8194 -41.2567 -7.48853
      vertex -31.4235 -41.8016 -5.81147
    endloop
  endfacet
  facet normal 0.808806 0.588076 -0
    outer loop
      vertex -31.4235 -41.8016 -5.81147
      vertex -31.46 -41.7514 -5.775
      vertex -31.4235 -41.8016 -5.775
    endloop
  endfacet
  facet normal 0.809012 -0.587792 0
    outer loop
      vertex -31.8194 37.1067 -7.48853
      vertex -31.4235 37.6516 -9.275
      vertex -31.4235 37.6516 -5.81147
    endloop
  endfacet
  facet normal 0.809014 -0.58779 0
    outer loop
      vertex -32.46 36.225 -9.275
      vertex -31.8194 37.1067 -7.48853
      vertex -32.46 36.225 -7.48853
    endloop
  endfacet
  facet normal 0.809013 -0.587791 6.63443e-07
    outer loop
      vertex -31.8194 37.1067 -7.48853
      vertex -32.46 36.225 -9.275
      vertex -31.4235 37.6516 -9.275
    endloop
  endfacet
  facet normal 0.808806 -0.588076 0
    outer loop
      vertex -31.4235 37.6516 -5.775
      vertex -31.46 37.6014 -5.775
      vertex -31.4235 37.6516 -5.81147
    endloop
  endfacet
  facet normal -1 0 0
    outer loop
      vertex -29.7465 35.3433 -9.275
      vertex -29.7465 37.1067 -5.775
      vertex -29.7465 37.1067 -9.275
    endloop
  endfacet
  facet normal -1 -0 0
    outer loop
      vertex -29.7465 37.1067 -5.775
      vertex -29.7465 35.3433 -9.275
      vertex -29.7465 35.3433 -5.775
    endloop
  endfacet
  facet normal -0.309065 -0.951041 -0
    outer loop
      vertex -31.4235 37.6516 -5.81147
      vertex -31.4235 37.6516 -9.275
      vertex -30.925 37.4896 -6.31
    endloop
  endfacet
  facet normal -0.309004 -0.951061 0
    outer loop
      vertex -30.925 37.4896 -6.31
      vertex -29.7465 37.1067 -5.775
      vertex -30.925 37.4896 -5.775
    endloop
  endfacet
  facet normal -0.309022 -0.951055 -7.90903e-06
    outer loop
      vertex -29.7465 37.1067 -9.275
      vertex -30.925 37.4896 -6.31
      vertex -31.4235 37.6516 -9.275
    endloop
  endfacet
  facet normal -0.309004 -0.951061 0
    outer loop
      vertex -30.925 37.4896 -6.31
      vertex -29.7465 37.1067 -9.275
      vertex -29.7465 37.1067 -5.775
    endloop
  endfacet
  facet normal -0.309016 -0.951057 -0
    outer loop
      vertex -31.4235 37.6516 -5.775
      vertex -31.4235 37.6516 -5.81147
      vertex -31.269 37.6014 -5.775
    endloop
  endfacet
  facet normal 0 0 -1
    outer loop
      vertex -30.925 34.9604 -5.775
      vertex -29.7465 37.1067 -5.775
      vertex -29.7465 35.3433 -5.775
    endloop
  endfacet
  facet normal -0 0 -1
    outer loop
      vertex -29.7465 37.1067 -5.775
      vertex -30.925 34.9604 -5.775
      vertex -30.925 37.4896 -5.775
    endloop
  endfacet
  facet normal 0 0 -1
    outer loop
      vertex -31.269 37.6014 -5.775
      vertex -31.46 37.6014 -5.775
      vertex -31.4235 37.6516 -5.775
    endloop
  endfacet
  facet normal 0 0 -1
    outer loop
      vertex -31.4235 34.7984 -5.775
      vertex -31.46 34.8486 -5.775
      vertex -31.269 34.8486 -5.775
    endloop
  endfacet
  facet normal -0.309004 0.951061 0
    outer loop
      vertex -29.7465 35.3433 -5.775
      vertex -30.925 34.9604 -6.31
      vertex -30.925 34.9604 -5.775
    endloop
  endfacet
  facet normal -0.309004 0.951061 0
    outer loop
      vertex -30.925 34.9604 -6.31
      vertex -29.7465 35.3433 -5.775
      vertex -29.7465 35.3433 -9.275
    endloop
  endfacet
  facet normal -0.309022 0.951055 -7.90903e-06
    outer loop
      vertex -31.4235 34.7984 -9.275
      vertex -30.925 34.9604 -6.31
      vertex -29.7465 35.3433 -9.275
    endloop
  endfacet
  facet normal -0.309065 0.951041 0
    outer loop
      vertex -30.925 34.9604 -6.31
      vertex -31.4235 34.7984 -9.275
      vertex -31.4235 34.7984 -5.81147
    endloop
  endfacet
  facet normal -0.309016 0.951057 0
    outer loop
      vertex -31.269 34.8486 -5.775
      vertex -31.4235 34.7984 -5.81147
      vertex -31.4235 34.7984 -5.775
    endloop
  endfacet
  facet normal 0.808806 0.588076 -0
    outer loop
      vertex -31.4235 34.7984 -5.81147
      vertex -31.46 34.8486 -5.775
      vertex -31.4235 34.7984 -5.775
    endloop
  endfacet
  facet normal 0.809014 0.58779 0
    outer loop
      vertex -31.8194 35.3433 -7.48853
      vertex -32.46 36.225 -9.275
      vertex -32.46 36.225 -7.48853
    endloop
  endfacet
  facet normal 0.809013 0.587791 6.63443e-07
    outer loop
      vertex -31.8194 35.3433 -7.48853
      vertex -31.4235 34.7984 -9.275
      vertex -32.46 36.225 -9.275
    endloop
  endfacet
  facet normal 0.809012 0.587792 -0
    outer loop
      vertex -31.4235 34.7984 -9.275
      vertex -31.8194 35.3433 -7.48853
      vertex -31.4235 34.7984 -5.81147
    endloop
  endfacet
  facet normal -0 0 1
    outer loop
      vertex -34.925 50.225 9.275
      vertex 34.925 -50.225 9.275
      vertex 34.925 50.225 9.275
    endloop
  endfacet
  facet normal 0 0 1
    outer loop
      vertex 34.925 -50.225 9.275
      vertex -34.925 50.225 9.275
      vertex -34.925 -50.225 9.275
    endloop
  endfacet
  facet normal 0 -1 0
    outer loop
      vertex -34.925 -50.225 -9.275
      vertex 34.925 -50.225 9.275
      vertex -34.925 -50.225 9.275
    endloop
  endfacet
  facet normal 0 -1 -0
    outer loop
      vertex 34.925 -50.225 9.275
      vertex -34.925 -50.225 -9.275
      vertex 34.925 -50.225 -9.275
    endloop
  endfacet
  facet normal 0 1 -0
    outer loop
      vertex 34.925 50.225 -9.275
      vertex -34.925 50.225 9.275
      vertex 34.925 50.225 9.275
    endloop
  endfacet
  facet normal 0 1 0
    outer loop
      vertex -34.925 50.225 9.275
      vertex 34.925 50.225 -9.275
      vertex -34.925 50.225 -9.275
    endloop
  endfacet
endsolid OpenSCAD_Model
